<?xml version="1.0" standalone="yes"?>
<svg xmlns="http://www.w3.org/2000/svg" width="528" height="516">
<path style="fill:#fffefe; stroke:none;" d="M0 0L0 516L528 516L528 0L0 0z"/>
<path style="fill:#a72624; stroke:none;" d="M8 8L9 9L8 8z"/>
<path style="fill:#cf1514; stroke:none;" d="M10 210L10 144L10 10L518 10L518 209C524.28 200.711 520 177.355 520 167L520 54L520 21C520 17.8493 521.216 11.261 518.397 9.02777C515.779 6.95425 510.122 8 507 8L476 8L358 8L95 8L31 8C26.3299 8 12.1629 5.64499 9.02778 9.60339C4.98335 14.7099 8 31.5894 8 38L8 118L8 184C8 191.228 5.52832 204.098 10 210z"/>
<path style="fill:#a72624; stroke:none;" d="M519 8L520 9L519 8z"/>
<path style="fill:#f4cf44; stroke:none;" d="M264 90L265 91L264 90M262 91L185 168L145 207L145 208C156.032 202.855 165.434 189.566 174 181L234 121C241.458 113.542 259.52 101.231 262 91z"/>
<path style="fill:#a72624; stroke:none;" d="M259 97L263 92L268 97C268.152 89.9218 261.192 92.4696 259 97z"/>
<path style="fill:#fa6f70; stroke:none;" d="M265 91L266 92L265 91z"/>
<path style="fill:#cf1514; stroke:none;" d="M263.667 92.3333L264.333 92.6667L263.667 92.3333z"/>
<path style="fill:#fa6f70; stroke:none;" d="M266 92L267 93L266 92M263 93L264 94L263 93z"/>
<path style="fill:#f4cf44; stroke:none;" d="M264 93L265 94L264 93z"/>
<path style="fill:#fa6f70; stroke:none;" d="M267 93L268 94L267 93M262 94L263 95L262 94z"/>
<path style="fill:#f4cf44; stroke:none;" d="M265 94L267 96L265 94z"/>
<path style="fill:#cf1514; stroke:none;" d="M266 94L267 95L266 94z"/>
<path style="fill:#fa6f70; stroke:none;" d="M268 94L269 95L268 94M261 95L262 96L261 95M269 95L295 122L322 148L296 121L269 95z"/>
<path style="fill:#cf1514; stroke:none;" d="M258.333 96.6667L258.667 97.3333L258.333 96.6667z"/>
<path style="fill:#fa6f70; stroke:none;" d="M260 96L261 97L260 96z"/>
<path style="fill:#f4cf44; stroke:none;" d="M267 96L268 97L267 96z"/>
<path style="fill:#cf1514; stroke:none;" d="M269.333 96.6667L269.667 97.3333L269.333 96.6667z"/>
<path style="fill:#a72624; stroke:none;" d="M257 97L253 102L257 97z"/>
<path style="fill:#fa6f70; stroke:none;" d="M259 97L260 98L259 97z"/>
<path style="fill:#f4cf44; stroke:none;" d="M268 97L269 98L268 97z"/>
<path style="fill:#a72624; stroke:none;" d="M270 97C272.837 103.084 278.916 109.163 285 112L270 97z"/>
<path style="fill:#fa6f70; stroke:none;" d="M258 98L259 99L258 98z"/>
<path style="fill:#f4cf44; stroke:none;" d="M269 98L270 99L269 98z"/>
<path style="fill:#cf1514; stroke:none;" d="M271 98L272 99L271 98z"/>
<path style="fill:#fa6f70; stroke:none;" d="M257 99L258 100L257 99z"/>
<path style="fill:#f4cf44; stroke:none;" d="M270 99L271 100L270 99M256 100L257 101L256 100M271 100L272 101L271 100z"/>
<path style="fill:#fa6f70; stroke:none;" d="M255 101L256 102L255 101z"/>
<path style="fill:#f4cf44; stroke:none;" d="M272 101L273 102L272 101z"/>
<path style="fill:#cf1514; stroke:none;" d="M252 102L246 110L254 102L252 102z"/>
<path style="fill:#fa6f70; stroke:none;" d="M254 102L255 103L254 102z"/>
<path style="fill:#f4cf44; stroke:none;" d="M273 102L274 103L273 102z"/>
<path style="fill:#a72624; stroke:none;" d="M251 103L252 104L251 103z"/>
<path style="fill:#fa6f70; stroke:none;" d="M253 103L254 104L253 103z"/>
<path style="fill:#f4cf44; stroke:none;" d="M274 103L275 104L274 103z"/>
<path style="fill:#fa6f70; stroke:none;" d="M252 104L253 105L252 104z"/>
<path style="fill:#f4cf44; stroke:none;" d="M275 104L276 105L275 104z"/>
<path style="fill:#cf1514; stroke:none;" d="M277 104L278 105L277 104z"/>
<path style="fill:#a72624; stroke:none;" d="M322 104L322 106L324 106L322 104M249 105L250 106L249 105z"/>
<path style="fill:#fa6f70; stroke:none;" d="M251 105L252 106L251 105z"/>
<path style="fill:#f4cf44; stroke:none;" d="M276 105L277 106L276 105z"/>
<path style="fill:#fa6f70; stroke:none;" d="M250 106L251 107L250 106z"/>
<path style="fill:#f4cf44; stroke:none;" d="M277 106L278 107L277 106z"/>
<path style="fill:#cf1514; stroke:none;" d="M279 106L280 107L279 106M322 106L322 139L324 152L324 106L322 106z"/>
<path style="fill:#a72624; stroke:none;" d="M247 107L248 108L247 107z"/>
<path style="fill:#fa6f70; stroke:none;" d="M249 107L250 108L249 107z"/>
<path style="fill:#f4cf44; stroke:none;" d="M278 107L279 108L278 107z"/>
<path style="fill:#fa6f70; stroke:none;" d="M248 108L249 109L248 108z"/>
<path style="fill:#f4cf44; stroke:none;" d="M279 108L280 109L279 108z"/>
<path style="fill:#a72624; stroke:none;" d="M245 109L243 112L245 109z"/>
<path style="fill:#fa6f70; stroke:none;" d="M247 109L248 110L247 109z"/>
<path style="fill:#f4cf44; stroke:none;" d="M280 109L281 110L280 109z"/>
<path style="fill:#fa6f70; stroke:none;" d="M246 110L247 111L246 110z"/>
<path style="fill:#f4cf44; stroke:none;" d="M281 110L282 111L281 110z"/>
<path style="fill:#fa6f70; stroke:none;" d="M245 111L246 112L245 111z"/>
<path style="fill:#f4cf44; stroke:none;" d="M282 111L283 112L282 111z"/>
<path style="fill:#cf1514; stroke:none;" d="M242 112L240 116L244 112L242 112z"/>
<path style="fill:#fa6f70; stroke:none;" d="M244 112L245 113L244 112z"/>
<path style="fill:#f4cf44; stroke:none;" d="M283 112C292.289 125.187 307.813 140.711 321 150C311.711 136.813 296.187 121.289 283 112z"/>
<path style="fill:#cf1514; stroke:none;" d="M284.667 112.333L285.333 112.667L284.667 112.333z"/>
<path style="fill:#a72624; stroke:none;" d="M241 113L242 114L241 113z"/>
<path style="fill:#fa6f70; stroke:none;" d="M243 113L244 114L243 113z"/>
<path style="fill:#a72624; stroke:none;" d="M285 113L287 115L287 113L285 113z"/>
<path style="fill:#fa6f70; stroke:none;" d="M242 114L243 115L242 114z"/>
<path style="fill:#cf1514; stroke:none;" d="M287.333 114.667L287.667 115.333L287.333 114.667z"/>
<path style="fill:#a72624; stroke:none;" d="M239 115L237 118L239 115z"/>
<path style="fill:#fa6f70; stroke:none;" d="M241 115L242 116L241 115z"/>
<path style="fill:#a72624; stroke:none;" d="M288 115C290.57 120.512 295.488 125.43 301 128L288 115z"/>
<path style="fill:#fa6f70; stroke:none;" d="M240 116L241 117L240 116M239 117L240 118L239 117z"/>
<path style="fill:#cf1514; stroke:none;" d="M236 118L230 126L238 118L236 118z"/>
<path style="fill:#fa6f70; stroke:none;" d="M238 118L239 119L238 118z"/>
<path style="fill:#a72624; stroke:none;" d="M235 119L236 120L235 119z"/>
<path style="fill:#fa6f70; stroke:none;" d="M237 119L238 120L237 119M236 120L237 121L236 120z"/>
<path style="fill:#cf1514; stroke:none;" d="M293 120L294 121L293 120z"/>
<path style="fill:#a72624; stroke:none;" d="M233 121L234 122L233 121z"/>
<path style="fill:#fa6f70; stroke:none;" d="M235 121L236 122L235 121M234 122L235 123L234 122z"/>
<path style="fill:#cf1514; stroke:none;" d="M295 122L296 123L295 122z"/>
<path style="fill:#a72624; stroke:none;" d="M231 123L232 124L231 123z"/>
<path style="fill:#fa6f70; stroke:none;" d="M233 123L234 124L233 123M232 124L233 125L232 124z"/>
<path style="fill:#a72624; stroke:none;" d="M229 125L227 128L229 125z"/>
<path style="fill:#fa6f70; stroke:none;" d="M231 125L232 126L231 125M230 126L231 127L230 126M229 127L230 128L229 127z"/>
<path style="fill:#cf1514; stroke:none;" d="M226 128L224 132L228 128L226 128z"/>
<path style="fill:#fa6f70; stroke:none;" d="M228 128L229 129L228 128z"/>
<path style="fill:#cf1514; stroke:none;" d="M300.667 128.333L301.333 128.667L300.667 128.333z"/>
<path style="fill:#a72624; stroke:none;" d="M225 129L226 130L225 129z"/>
<path style="fill:#fa6f70; stroke:none;" d="M227 129L228 130L227 129z"/>
<path style="fill:#a72624; stroke:none;" d="M301 129L303 131L303 129L301 129z"/>
<path style="fill:#fa6f70; stroke:none;" d="M226 130L227 131L226 130z"/>
<path style="fill:#cf1514; stroke:none;" d="M303.333 130.667L303.667 131.333L303.333 130.667z"/>
<path style="fill:#a72624; stroke:none;" d="M223 131L221 134L223 131z"/>
<path style="fill:#fa6f70; stroke:none;" d="M225 131L226 132L225 131z"/>
<path style="fill:#a72624; stroke:none;" d="M304 131C306.57 136.512 311.488 141.43 317 144L304 131z"/>
<path style="fill:#fa6f70; stroke:none;" d="M224 132L225 133L224 132M223 133L224 134L223 133z"/>
<path style="fill:#cf1514; stroke:none;" d="M220 134L214 142L222 134L220 134z"/>
<path style="fill:#fa6f70; stroke:none;" d="M222 134L223 135L222 134z"/>
<path style="fill:#a72624; stroke:none;" d="M219 135L220 136L219 135z"/>
<path style="fill:#fa6f70; stroke:none;" d="M221 135L222 136L221 135M220 136L221 137L220 136z"/>
<path style="fill:#cf1514; stroke:none;" d="M309 136L310 137L309 136z"/>
<path style="fill:#a72624; stroke:none;" d="M217 137L218 138L217 137z"/>
<path style="fill:#fa6f70; stroke:none;" d="M219 137L220 138L219 137M218 138L219 139L218 138z"/>
<path style="fill:#cf1514; stroke:none;" d="M311 138L312 139L311 138z"/>
<path style="fill:#a72624; stroke:none;" d="M215 139L216 140L215 139z"/>
<path style="fill:#fa6f70; stroke:none;" d="M217 139L218 140L217 139M216 140L217 141L216 140z"/>
<path style="fill:#a72624; stroke:none;" d="M213 141L211 144L213 141z"/>
<path style="fill:#fa6f70; stroke:none;" d="M215 141L216 142L215 141M214 142L215 143L214 142M213 143L214 144L213 143z"/>
<path style="fill:#cf1514; stroke:none;" d="M210 144L208 148L212 144L210 144z"/>
<path style="fill:#fa6f70; stroke:none;" d="M212 144L213 145L212 144z"/>
<path style="fill:#cf1514; stroke:none;" d="M316.667 144.333L317.333 144.667L316.667 144.333z"/>
<path style="fill:#a72624; stroke:none;" d="M209 145L210 146L209 145z"/>
<path style="fill:#fa6f70; stroke:none;" d="M211 145L212 146L211 145z"/>
<path style="fill:#a72624; stroke:none;" d="M317 145L319 147L319 145L317 145z"/>
<path style="fill:#fa6f70; stroke:none;" d="M210 146L211 147L210 146z"/>
<path style="fill:#cf1514; stroke:none;" d="M319.333 146.667L319.667 147.333L319.333 146.667z"/>
<path style="fill:#a72624; stroke:none;" d="M207 147L205 150L207 147z"/>
<path style="fill:#fa6f70; stroke:none;" d="M209 147L210 148L209 147z"/>
<path style="fill:#a72624; stroke:none;" d="M320.333 147.667L320.667 148.333L320.333 147.667z"/>
<path style="fill:#fa6f70; stroke:none;" d="M208 148L209 149L208 148M207 149L208 150L207 149z"/>
<path style="fill:#cf1514; stroke:none;" d="M204 150L198 158L206 150L204 150z"/>
<path style="fill:#fa6f70; stroke:none;" d="M206 150L207 151L206 150z"/>
<path style="fill:#f4cf44; stroke:none;" d="M321 150L322 151L321 150z"/>
<path style="fill:#fa6f70; stroke:none;" d="M324 150L353 180L382 208L354 179L324 150z"/>
<path style="fill:#a72624; stroke:none;" d="M203 151L204 152L203 151z"/>
<path style="fill:#fa6f70; stroke:none;" d="M205 151L206 152L205 151z"/>
<path style="fill:#f4cf44; stroke:none;" d="M322 151L323 152L322 151z"/>
<path style="fill:#a72624; stroke:none;" d="M324 151L329 156L324 151z"/>
<path style="fill:#fa6f70; stroke:none;" d="M204 152L205 153L204 152z"/>
<path style="fill:#f4cf44; stroke:none;" d="M323 152L324 153L323 152z"/>
<path style="fill:#a72624; stroke:none;" d="M201 153L202 154L201 153z"/>
<path style="fill:#fa6f70; stroke:none;" d="M203 153L204 154L203 153z"/>
<path style="fill:#f4cf44; stroke:none;" d="M324 153L325 154L324 153z"/>
<path style="fill:#fa6f70; stroke:none;" d="M202 154L203 155L202 154z"/>
<path style="fill:#f4cf44; stroke:none;" d="M325 154L326 155L325 154z"/>
<path style="fill:#a72624; stroke:none;" d="M199 155L200 156L199 155z"/>
<path style="fill:#fa6f70; stroke:none;" d="M201 155L202 156L201 155z"/>
<path style="fill:#f4cf44; stroke:none;" d="M326 155L327 156L326 155z"/>
<path style="fill:#fa6f70; stroke:none;" d="M200 156L201 157L200 156z"/>
<path style="fill:#f4cf44; stroke:none;" d="M327 156L362 192L382 210L382 209L327 156z"/>
<path style="fill:#cf1514; stroke:none;" d="M328 156L330 158L330 156L328 156z"/>
<path style="fill:#a72624; stroke:none;" d="M197 157L195 160L197 157z"/>
<path style="fill:#fa6f70; stroke:none;" d="M199 157L200 158L199 157z"/>
<path style="fill:#a72624; stroke:none;" d="M330 157L333 160L330 157z"/>
<path style="fill:#fa6f70; stroke:none;" d="M198 158L199 159L198 158M197 159L198 160L197 159z"/>
<path style="fill:#cf1514; stroke:none;" d="M194 160L192 164L196 160L194 160z"/>
<path style="fill:#fa6f70; stroke:none;" d="M196 160L197 161L196 160z"/>
<path style="fill:#cf1514; stroke:none;" d="M332.667 160.333L333.333 160.667L332.667 160.333z"/>
<path style="fill:#a72624; stroke:none;" d="M193 161L194 162L193 161z"/>
<path style="fill:#fa6f70; stroke:none;" d="M195 161L196 162L195 161z"/>
<path style="fill:#a72624; stroke:none;" d="M333 161L335 163L335 161L333 161z"/>
<path style="fill:#fa6f70; stroke:none;" d="M194 162L195 163L194 162z"/>
<path style="fill:#cf1514; stroke:none;" d="M335.333 162.667L335.667 163.333L335.333 162.667z"/>
<path style="fill:#a72624; stroke:none;" d="M191 163L189 166L191 163z"/>
<path style="fill:#fa6f70; stroke:none;" d="M193 163L194 164L193 163z"/>
<path style="fill:#a72624; stroke:none;" d="M336 163C338.57 168.512 343.488 173.43 349 176L336 163z"/>
<path style="fill:#fa6f70; stroke:none;" d="M192 164L193 165L192 164M191 165L192 166L191 165z"/>
<path style="fill:#cf1514; stroke:none;" d="M188 166L182 174L190 166L188 166z"/>
<path style="fill:#fa6f70; stroke:none;" d="M190 166L191 167L190 166z"/>
<path style="fill:#a72624; stroke:none;" d="M187 167L188 168L187 167z"/>
<path style="fill:#fa6f70; stroke:none;" d="M189 167L190 168L189 167M188 168L189 169L188 168z"/>
<path style="fill:#cf1514; stroke:none;" d="M341 168L342 169L341 168z"/>
<path style="fill:#a72624; stroke:none;" d="M185 169L186 170L185 169z"/>
<path style="fill:#fa6f70; stroke:none;" d="M187 169L188 170L187 169M186 170L187 171L186 170z"/>
<path style="fill:#cf1514; stroke:none;" d="M343 170L344 171L343 170z"/>
<path style="fill:#a72624; stroke:none;" d="M183 171L184 172L183 171z"/>
<path style="fill:#fa6f70; stroke:none;" d="M185 171L186 172L185 171M184 172L185 173L184 172z"/>
<path style="fill:#a72624; stroke:none;" d="M181 173L179 176L181 173z"/>
<path style="fill:#fa6f70; stroke:none;" d="M183 173L184 174L183 173M182 174L183 175L182 174M181 175L182 176L181 175z"/>
<path style="fill:#cf1514; stroke:none;" d="M178 176L176 180L180 176L178 176z"/>
<path style="fill:#fa6f70; stroke:none;" d="M180 176L181 177L180 176z"/>
<path style="fill:#cf1514; stroke:none;" d="M348.667 176.333L349.333 176.667L348.667 176.333z"/>
<path style="fill:#a72624; stroke:none;" d="M177 177L178 178L177 177z"/>
<path style="fill:#fa6f70; stroke:none;" d="M179 177L180 178L179 177z"/>
<path style="fill:#a72624; stroke:none;" d="M349 177L351 179L351 177L349 177z"/>
<path style="fill:#fa6f70; stroke:none;" d="M178 178L179 179L178 178z"/>
<path style="fill:#cf1514; stroke:none;" d="M351.333 178.667L351.667 179.333L351.333 178.667z"/>
<path style="fill:#a72624; stroke:none;" d="M175 179L173 182L175 179z"/>
<path style="fill:#fa6f70; stroke:none;" d="M177 179L178 180L177 179z"/>
<path style="fill:#a72624; stroke:none;" d="M352 179C354.57 184.512 359.488 189.43 365 192L352 179z"/>
<path style="fill:#fa6f70; stroke:none;" d="M176 180L177 181L176 180M175 181L176 182L175 181z"/>
<path style="fill:#cf1514; stroke:none;" d="M172 182L166 190L174 182L172 182z"/>
<path style="fill:#fa6f70; stroke:none;" d="M174 182L175 183L174 182z"/>
<path style="fill:#a72624; stroke:none;" d="M171 183L172 184L171 183z"/>
<path style="fill:#fa6f70; stroke:none;" d="M173 183L174 184L173 183M172 184L173 185L172 184z"/>
<path style="fill:#cf1514; stroke:none;" d="M357 184L358 185L357 184z"/>
<path style="fill:#a72624; stroke:none;" d="M169 185L170 186L169 185z"/>
<path style="fill:#fa6f70; stroke:none;" d="M171 185L172 186L171 185M170 186L171 187L170 186z"/>
<path style="fill:#cf1514; stroke:none;" d="M359 186L360 187L359 186z"/>
<path style="fill:#a72624; stroke:none;" d="M167 187L168 188L167 187z"/>
<path style="fill:#fa6f70; stroke:none;" d="M169 187L170 188L169 187M168 188L169 189L168 188z"/>
<path style="fill:#a72624; stroke:none;" d="M165 189L163 192L165 189z"/>
<path style="fill:#fa6f70; stroke:none;" d="M167 189L168 190L167 189M166 190L167 191L166 190M165 191L166 192L165 191z"/>
<path style="fill:#cf1514; stroke:none;" d="M162 192L160 196L164 192L162 192z"/>
<path style="fill:#fa6f70; stroke:none;" d="M164 192L165 193L164 192z"/>
<path style="fill:#cf1514; stroke:none;" d="M364.667 192.333L365.333 192.667L364.667 192.333z"/>
<path style="fill:#a72624; stroke:none;" d="M161 193L162 194L161 193z"/>
<path style="fill:#fa6f70; stroke:none;" d="M163 193L164 194L163 193z"/>
<path style="fill:#a72624; stroke:none;" d="M365 193L367 195L367 193L365 193z"/>
<path style="fill:#fa6f70; stroke:none;" d="M162 194L163 195L162 194z"/>
<path style="fill:#cf1514; stroke:none;" d="M367.333 194.667L367.667 195.333L367.333 194.667z"/>
<path style="fill:#a72624; stroke:none;" d="M159 195L155 200L159 195z"/>
<path style="fill:#fa6f70; stroke:none;" d="M161 195L162 196L161 195z"/>
<path style="fill:#a72624; stroke:none;" d="M368 195C370.706 200.802 376.198 206.294 382 209L368 195z"/>
<path style="fill:#fa6f70; stroke:none;" d="M160 196L161 197L160 196M159 197L160 198L159 197M158 198L159 199L158 198M157 199L158 200L157 199z"/>
<path style="fill:#cf1514; stroke:none;" d="M154 200L152 204L156 200L154 200z"/>
<path style="fill:#fa6f70; stroke:none;" d="M156 200L157 201L156 200z"/>
<path style="fill:#cf1514; stroke:none;" d="M373 200L374 201L373 200z"/>
<path style="fill:#a72624; stroke:none;" d="M153 201L154 202L153 201z"/>
<path style="fill:#fa6f70; stroke:none;" d="M155 201L156 202L155 201M154 202L155 203L154 202M189 202L190 203L189 202z"/>
<path style="fill:#f4cf44; stroke:none;" d="M190 202L199 211L190 202z"/>
<path style="fill:#fa6f70; stroke:none;" d="M338 202L329 212L330 213C333.247 210.71 339.415 206.562 338 202z"/>
<path style="fill:#f4cf44; stroke:none;" d="M339.333 202.667L339.667 203.333L339.333 202.667z"/>
<path style="fill:#cf1514; stroke:none;" d="M375 202L376 203L375 202z"/>
<path style="fill:#a72624; stroke:none;" d="M151 203L146 209L151 203z"/>
<path style="fill:#fa6f70; stroke:none;" d="M153 203L154 204L153 203z"/>
<path style="fill:#a72624; stroke:none;" d="M189 203L191 205L191 203L189 203z"/>
<path style="fill:#f4cf44; stroke:none;" d="M336 203L337 204L336 203z"/>
<path style="fill:#a72624; stroke:none;" d="M338 203L339 204L338 203z"/>
<path style="fill:#fa6f70; stroke:none;" d="M152 204L153 205L152 204M189 204L190 205L189 204z"/>
<path style="fill:#cf1514; stroke:none;" d="M191.333 204.667L191.667 205.333L191.333 204.667z"/>
<path style="fill:#a72624; stroke:none;" d="M337 204L338 205L337 204z"/>
<path style="fill:#fa6f70; stroke:none;" d="M151 205L152 206L151 205M190 205L191 206L190 205z"/>
<path style="fill:#a72624; stroke:none;" d="M192 205L199 212L192 205M333 209L337 205L333 209z"/>
<path style="fill:#fa6f70; stroke:none;" d="M150 206L151 207L150 206M191 206L192 207L191 206z"/>
<path style="fill:#f4cf44; stroke:none;" d="M10 207L11 208L10 207z"/>
<path style="fill:#fa6f70; stroke:none;" d="M149 207L150 208L149 207M192 207L193 208L192 207z"/>
<path style="fill:#a72624; stroke:none;" d="M11 208L11 209L144 209C133.496 204.592 115.42 208 104 208L11 208z"/>
<path style="fill:#cf1514; stroke:none;" d="M144.667 208.333L145.333 208.667L144.667 208.333z"/>
<path style="fill:#fa6f70; stroke:none;" d="M148 208L149 209L148 208M193 208L194 209L193 208z"/>
<path style="fill:#a72624; stroke:none;" d="M519.333 208.667L519.667 209.333L519.333 208.667M8 209L9 210L8 209z"/>
<path style="fill:#fa6f70; stroke:none;" d="M10 209L10 210L147 210C136.258 205.493 117.682 209 106 209L10 209z"/>
<path style="fill:#f4cf44; stroke:none;" d="M147 209L148 210L147 209z"/>
<path style="fill:#fa6f70; stroke:none;" d="M194 209L195 210L194 209z"/>
<path style="fill:#f4cf44; stroke:none;" d="M330 209L331 210L330 209z"/>
<path style="fill:#a72624; stroke:none;" d="M332 209L331 211L332 209z"/>
<path style="fill:#f4cf44; stroke:none;" d="M195 210L196 211L195 210M329 210L330 211L329 210M196 211L197 212L196 211z"/>
<path style="fill:#fa6f70; stroke:none;" d="M199 211L200 212L199 211z"/>
<path style="fill:#f4cf44; stroke:none;" d="M328 211L329 212L328 211z"/>
<path style="fill:#cf1514; stroke:none;" d="M330 211L331 212L330 211z"/>
<path style="fill:#f4cf44; stroke:none;" d="M197 212L198 213L197 212z"/>
<path style="fill:#cf1514; stroke:none;" d="M198 212L199 215L200 215L200 212L198 212z"/>
<path style="fill:#a72624; stroke:none;" d="M263 212L263 276L265 276L265 231L263 212z"/>
<path style="fill:#cf1514; stroke:none;" d="M264 212L264 214C284.017 214 310.843 218.662 330 213L309 212L264 212z"/>
<path style="fill:#fa6f70; stroke:none;" d="M198 213L198 261L199.603 277.972L217 279L263 279L263 278L199 278L199 234L198 213z"/>
<path style="fill:#a72624; stroke:none;" d="M329 213L330 214L329 213z"/>
<path style="fill:#f4cf44; stroke:none;" d="M200.333 214.667L200.667 215.333L200.333 214.667z"/>
<path style="fill:#a72624; stroke:none;" d="M199 215L199 222L200 222L199 215z"/>
<path style="fill:#cf1514; stroke:none;" d="M199.333 222.667L199.667 223.333L199.333 222.667z"/>
<path style="fill:#a72624; stroke:none;" d="M199 224L199 272L200 272C200 258.474 204.209 236.414 199 224z"/>
<path style="fill:#f4cf44; stroke:none;" d="M226 239L226 261L247 261L247 239L226 239M281 239L281 261C293.745 261 303.007 264.247 303 249C302.999 246.383 303.75 241.891 301.397 240.028C297.402 236.864 285.941 239 281 239z"/>
<path style="fill:#cf1514; stroke:none;" d="M199.333 272.667L199.667 273.333L199.333 272.667z"/>
<path style="fill:#f4cf44; stroke:none;" d="M200 272L200 277L263 277L263 276L201 276L200 272z"/>
<path style="fill:#a72624; stroke:none;" d="M199 274L199 278L262 278L262 277L217 277C210.94 277 203.689 278.476 199 274z"/>
<path style="fill:#cf1514; stroke:none;" d="M262 277L262 278L266 278L262 277z"/>
<path style="fill:#f4cf44; stroke:none;" d="M265 276L265 277L330 277L309 276L265 276z"/>
<path style="fill:#a72624; stroke:none;" d="M266 277L266 278L329 278L329 335L330 335L330 277L266 277M380 279L478 279L520 278C511.165 274.293 496.585 277 487 277L413 277C405.82 277 384.772 273.539 380 279z"/>
<path style="fill:#f4cf44; stroke:none;" d="M198 278L199 279L198 278z"/>
<path style="fill:#fa6f70; stroke:none;" d="M265 278L265 279L328 279L328 343L329 343L329 278L265 278z"/>
<path style="fill:#cf1514; stroke:none;" d="M381 278L380 318L380 402L382 402L382 316C382 305.104 385.208 288.027 381 278M518 278L518 512L520 512L520 278L518 278z"/>
<path style="fill:#a72624; stroke:none;" d="M263 279L263 342L265 342L265 279L263 279z"/>
<path style="fill:#f4cf44; stroke:none;" d="M226 295L226 316L247 316L247 295L226 295M281 295L281 316L303 316L303 295L281 295z"/>
<path style="fill:#a72624; stroke:none;" d="M8.66667 318.333L9.33333 318.667L8.66667 318.333M146.667 318.333L147.333 318.667L146.667 318.333z"/>
<path style="fill:#cf1514; stroke:none;" d="M8 319L8 512L10 512L10 319L8 319M146 319L146 402L148 402L148 319L146 319M329 335L329 338L330 338L329 335z"/>
<path style="fill:#f4cf44; stroke:none;" d="M330.333 337.667L330.667 338.333L330.333 337.667z"/>
<path style="fill:#a72624; stroke:none;" d="M329.333 338.667L329.667 339.333L329.333 338.667z"/>
<path style="fill:#cf1514; stroke:none;" d="M329 340L329 343L330 343L329 340z"/>
<path style="fill:#f4cf44; stroke:none;" d="M330 341L331 342L330 341z"/>
<path style="fill:#a72624; stroke:none;" d="M198 342L189 353L198 342z"/>
<path style="fill:#cf1514; stroke:none;" d="M198 343L198 344C218.309 344 245.565 348.745 265 343C259.538 340.708 251.887 342 246 342C231.243 342 212.146 338.819 198 343z"/>
<path style="fill:#fa6f70; stroke:none;" d="M330 342L331 343L330 342z"/>
<path style="fill:#a72624; stroke:none;" d="M264 343L265 344L264 343z"/>
<path style="fill:#f4cf44; stroke:none;" d="M328 343L332 347L328 343z"/>
<path style="fill:#a72624; stroke:none;" d="M329 343L333 346L329 343z"/>
<path style="fill:#f4cf44; stroke:none;" d="M331 343L332 344L331 343z"/>
<path style="fill:#fa6f70; stroke:none;" d="M196 344L197 345L196 344M198 344L199 345L198 344z"/>
<path style="fill:#f4cf44; stroke:none;" d="M332 344L333 345L332 344z"/>
<path style="fill:#fa6f70; stroke:none;" d="M197 345L198 346L197 345z"/>
<path style="fill:#f4cf44; stroke:none;" d="M333 345L339 353L340 353L333 345z"/>
<path style="fill:#cf1514; stroke:none;" d="M195 346L194 348L195 346z"/>
<path style="fill:#fa6f70; stroke:none;" d="M196 346L197 347L196 346z"/>
<path style="fill:#cf1514; stroke:none;" d="M332 346L334 348L334 346L332 346z"/>
<path style="fill:#f4cf44; stroke:none;" d="M192 347L191 349L192 347z"/>
<path style="fill:#fa6f70; stroke:none;" d="M195 347L196 348L195 347M332 347L333 348L332 347z"/>
<path style="fill:#a72624; stroke:none;" d="M334 347L339 353L334 347z"/>
<path style="fill:#fa6f70; stroke:none;" d="M192 348L193 349L192 348M194 348L195 349L194 348M333 348L334 349L333 348M193 349L194 350L193 349M334 349L335 350L334 349M192 350L193 351L192 350M335 350L336 351L335 350M191 351L192 352L191 351M336 351L337 352L336 351M190 352L191 353L190 352M337 352L338 353L337 352z"/>
<path style="fill:#a72624; stroke:none;" d="M146 402L146 403L382 403C377.119 399.666 369.712 401 364 401L322 401L204 401C185.692 401 163.821 397.757 146 402M8 512L8 513L520 513C511.968 507.513 493.579 511 484 511L391 511L131 511L50 511C36.5764 511 21.0868 508.884 8 512z"/>
</svg>
